<?xml version="1.0" encoding="UTF-8" ?>
<!DOCTYPE svg PUBLIC "-//W3C//DTD SVG 1.1//EN" "http://www.w3.org/Graphics/SVG/1.1/DTD/svg11.dtd">
<svg width="90pt" height="30pt" viewBox="0 0 90 30" version="1.1" xmlns="http://www.w3.org/2000/svg">
<g id="#ffffffff">
<path fill="#ffffff" opacity="1.00" d=" M 6.26 3.69 C 10.55 1.44 15.68 5.38 14.94 10.06 C 16.98 12.24 19.14 14.30 21.21 16.45 C 25.99 15.68 29.85 20.75 27.55 25.14 C 26.35 24.14 25.18 23.12 24.00 22.10 C 23.82 22.38 23.46 22.95 23.28 23.23 C 24.33 24.52 25.75 25.71 25.87 27.50 C 24.23 27.77 22.59 27.74 20.97 27.41 C 19.10 25.48 17.07 23.41 17.45 20.47 C 14.43 17.97 12.35 13.66 7.97 13.52 C 4.63 12.51 3.14 8.38 4.67 5.28 C 6.10 6.40 7.51 7.56 9.05 8.53 C 8.93 6.52 7.41 5.17 6.26 3.69 Z" />
<path fill="#ffffff" opacity="1.00" d=" M 70.45 5.56 C 75.94 4.81 81.46 2.99 87.02 3.48 C 86.77 9.94 87.18 16.41 86.83 22.86 C 85.24 26.40 79.41 26.79 77.81 23.02 C 77.66 19.67 81.56 18.11 84.40 18.38 C 84.36 15.26 84.37 12.14 84.38 9.01 C 80.64 9.26 76.98 9.98 73.29 10.59 C 73.32 15.42 73.32 20.25 73.30 25.08 C 71.35 27.82 66.78 29.25 64.47 26.16 C 62.76 22.56 67.53 20.21 70.53 20.55 C 70.43 15.55 70.52 10.55 70.45 5.56 Z" />
<path fill="#ffffff" opacity="1.00" d=" M 35.10 9.28 C 39.43 4.81 46.48 4.29 52.15 6.03 C 56.35 7.38 60.72 11.17 59.85 16.01 C 59.62 19.13 56.74 20.69 54.68 22.55 C 54.59 24.29 54.63 26.03 54.61 27.77 C 53.11 26.46 51.71 25.05 50.24 23.71 C 44.82 24.43 38.59 23.48 34.92 19.06 C 32.43 16.41 32.48 11.82 35.10 9.28 Z" />
</g>
</svg>
